<?xml version="1.0" standalone="no"?>
<!DOCTYPE svg PUBLIC "-//W3C//DTD SVG 20010904//EN"
 "http://www.w3.org/TR/2001/REC-SVG-20010904/DTD/svg10.dtd">
<svg version="1.0" xmlns="http://www.w3.org/2000/svg"
 width="260.000000pt" height="260.000000pt" viewBox="0 0 260.000000 260.000000"
 preserveAspectRatio="xMidYMid meet">
<metadata>
Created by potrace 1.14, written by Peter Selinger 2001-2017
</metadata>
<g transform="translate(0.000000,260.000000) scale(0.100000,-0.100000)"
fill="#000000" stroke="none">
<path d="M1305 2581 c92 -33 172 -80 240 -140 40 -35 42 -43 16 -97 -61 -127
-141 -428 -141 -530 l0 -62 -73 -73 c-47 -48 -83 -95 -100 -131 -15 -32 -31
-58 -36 -58 -5 0 -31 -20 -59 -45 -27 -25 -55 -45 -60 -45 -18 0 -92 127 -136
231 -37 90 -58 107 -158 130 -46 11 -104 28 -130 39 -60 25 -108 25 -141 0
-14 -11 -33 -20 -44 -20 -32 0 -123 -67 -123 -90 0 -6 -31 -10 -69 -10 -64 0
-72 -2 -100 -31 -17 -17 -34 -41 -37 -54 -3 -13 -18 -29 -34 -35 -15 -6 -39
-24 -53 -38 -67 -71 -62 -171 14 -257 41 -46 78 -65 129 -65 22 0 40 -4 40 -9
0 -5 -19 -26 -42 -46 -65 -58 -88 -100 -88 -165 0 -100 68 -171 170 -178 53
-4 61 -2 84 21 37 37 34 57 -6 51 -41 -7 -98 29 -113 69 -13 40 12 83 46 79
13 -1 48 -5 76 -8 63 -8 107 8 129 45 14 24 22 27 71 27 45 1 59 6 80 26 l25
25 51 -19 c36 -14 76 -43 132 -97 75 -72 130 -104 227 -135 9 -2 25 -24 36
-48 23 -50 64 -96 110 -123 25 -15 32 -25 28 -41 -3 -12 0 -45 8 -73 13 -51
13 -53 -10 -63 -34 -16 -104 14 -148 63 -20 21 -36 44 -36 49 0 6 -5 10 -11
10 -21 0 -3 -116 25 -165 59 -99 184 -125 276 -57 24 18 53 32 64 32 11 0 39
20 63 45 36 38 43 52 44 88 3 82 -3 113 -41 197 -21 47 -45 109 -54 139 -9 30
-29 78 -46 108 -17 29 -26 53 -21 53 4 0 30 -10 57 -22 73 -33 194 -32 249 2
36 22 49 25 120 22 87 -4 161 11 274 55 118 46 155 90 115 134 -15 17 -14 18
12 24 89 19 177 70 210 121 10 14 17 42 16 62 -1 33 3 39 38 60 21 12 44 22
50 22 5 0 26 10 45 23 l35 22 0 488 0 487 -672 0 c-661 -1 -672 -1 -623 -19z
m-565 -867 c25 -8 58 -14 73 -14 48 0 64 -17 111 -115 69 -145 176 -287 304
-402 80 -72 152 -172 152 -213 0 -39 26 -108 56 -148 38 -49 64 -128 64 -194
0 -50 -4 -60 -31 -87 -17 -17 -36 -31 -44 -31 -7 0 -27 16 -44 35 -44 50 -42
93 4 140 38 37 39 59 2 50 -26 -7 -62 27 -97 89 l-21 39 21 22 c28 29 35 83
16 115 -9 14 -25 44 -36 66 -22 46 -70 75 -93 56 -10 -8 -23 -7 -50 5 -45 21
-49 37 -7 28 32 -7 40 5 15 25 -9 8 -33 10 -72 6 -90 -9 -92 -9 -195 -4 -53 3
-101 1 -105 -3 -14 -14 -72 13 -79 36 -8 27 -34 55 -50 55 -9 0 -11 -10 -7
-35 13 -78 -57 -115 -96 -51 -29 47 -52 55 -44 16 6 -31 -11 -82 -36 -112 -16
-18 -85 -25 -107 -10 -6 4 -18 27 -28 51 -17 43 -17 44 6 68 36 39 87 60 162
66 41 4 82 15 103 27 39 23 48 20 88 -28 53 -63 129 -81 179 -41 22 17 26 27
21 48 l-7 26 25 -23 c20 -19 34 -23 73 -20 40 2 51 7 63 30 19 32 9 45 -22 31
-30 -14 -68 2 -98 40 -20 26 -20 29 -5 46 21 23 30 81 17 101 -8 12 -14 10
-35 -13 -16 -18 -35 -27 -55 -27 -35 0 -52 19 -23 26 24 7 47 72 38 108 -8 34
-22 33 -41 -3 -10 -19 -30 -35 -60 -47 l-46 -17 -31 30 c-17 17 -27 36 -24 42
11 18 30 13 41 -11 11 -23 35 -37 35 -19 0 6 -10 19 -21 30 -17 16 -20 27 -15
51 4 20 0 42 -10 62 -15 29 -15 31 2 24 11 -5 39 -14 64 -22z m-132 -11 c2 -9
-7 -13 -28 -13 -59 0 -115 -44 -147 -115 -15 -36 -17 -38 -21 -16 -7 41 26
107 66 135 28 19 48 25 81 23 25 -1 46 -7 49 -14z m-282 -81 c6 -4 14 -25 17
-46 3 -22 22 -64 42 -94 20 -29 35 -55 33 -57 -51 -43 -139 -25 -123 25 l7 23
22 -28 c13 -16 28 -25 34 -21 8 5 -1 20 -26 45 -31 31 -88 107 -100 133 -3 7
44 26 68 27 8 0 20 -3 26 -7z m264 -48 c0 -23 64 -84 89 -84 12 0 41 -19 64
-42 24 -24 54 -50 68 -59 24 -16 56 -85 45 -96 -3 -3 -29 -7 -57 -9 -44 -2
-55 2 -87 29 -20 17 -39 32 -41 33 -1 2 0 8 4 14 5 8 19 -1 40 -24 18 -20 39
-36 46 -36 7 0 -6 18 -29 40 -30 29 -42 49 -42 69 0 16 -6 34 -14 40 -11 9
-16 5 -26 -19 -11 -26 -17 -30 -52 -30 -58 0 -81 16 -75 49 3 15 -1 40 -8 55
-11 20 -12 33 -5 46 20 37 80 55 80 24z m-449 -109 c-38 -43 -45 -71 -37 -136
8 -58 -7 -59 -30 -3 -24 58 -18 102 20 140 19 19 44 34 56 34 21 0 21 -2 -9
-35z m126 -115 c21 -11 54 -20 73 -20 20 0 53 9 75 20 43 22 65 25 65 10 0 -5
12 -16 28 -24 l27 -14 -28 -11 c-16 -6 -46 -11 -68 -11 -47 0 -92 -21 -135
-62 -24 -23 -37 -28 -57 -23 -36 10 -58 37 -64 84 -10 74 14 89 84 51z m-17
-237 c0 -5 -14 -28 -30 -53 -39 -59 -41 -121 -5 -175 34 -48 23 -58 -18 -17
-31 31 -32 36 -32 112 0 73 2 81 29 109 28 29 56 41 56 24z m1001 -63 c36 -20
21 -31 -33 -25 -76 9 -90 17 -43 25 22 4 44 8 48 9 5 0 17 -4 28 -9z"/>
<path d="M1016 1235 c-7 -20 21 -32 37 -16 9 9 8 14 -3 21 -21 13 -27 12 -34
-5z"/>
<path d="M900 1218 c0 -4 14 -8 30 -8 17 0 30 2 30 4 0 2 -13 6 -30 8 -16 3
-30 1 -30 -4z"/>
<path d="M580 1190 c-13 -8 -12 -10 3 -10 9 0 17 5 17 10 0 12 -1 12 -20 0z"/>
<path d="M390 1095 c0 -13 4 -14 23 -4 33 17 33 19 4 19 -18 0 -27 -5 -27 -15z"/>
<path d="M550 1450 c0 -6 12 -15 26 -20 32 -13 44 -13 44 0 0 6 -9 10 -19 10
-11 0 -23 5 -26 10 -8 13 -25 13 -25 0z"/>
</g>
</svg>
